<svg width="188" height="56" viewBox="0 0 188 56" fill="none" xmlns="http://www.w3.org/2000/svg">
  <rect x="0.75" y="0.75" width="54.5" height="54.5" rx="15.25" fill="url(#icon-bg)" stroke="rgba(255,255,255,0.14)" stroke-width="1.5"/>
  <path d="M34.1 18.5c-1.2-1.8-3.4-3-6.1-3-4 0-6.8 2.1-6.8 5.1 0 6.8 13.4 3.2 13.4 10.9 0 4.1-3.6 7.2-8.7 7.2-3.8 0-6.9-1.5-8.6-4.2l3.7-2.6c1.1 1.8 2.9 2.8 5.1 2.8 2.5 0 4.1-1.1 4.1-2.8 0-3.9-13.4-.7-13.4-10.8 0-5 4.2-8.3 10.6-8.3 4.3 0 7.7 1.6 9.6 4.6l-2.9 1.1Z" fill="#F8F5FF"/>
  <circle cx="37" cy="15.3" r="3.1" fill="#9070FF"/>
  <path d="M74.5 36.7c-5.5 0-9.3-2.6-9.8-6.8h5c.4 1.8 2.1 2.8 4.8 2.8 2.5 0 4-1 4-2.5 0-4.2-13.1-.7-13.1-9.3 0-3.7 3.4-6.3 8.5-6.3 5 0 8.3 2.4 8.8 6.4h-4.9c-.3-1.7-1.7-2.5-3.9-2.5-2.2 0-3.5.9-3.5 2.2 0 3.7 13.2.3 13.2 9.2 0 4-3.6 6.8-9.1 6.8Z" fill="#F7F4FF"/>
  <path d="M98 36.7c-6.5 0-10.9-4.3-10.9-10.9 0-6.6 4.3-11.2 10.6-11.2 6.2 0 10.3 4.3 10.3 10.7 0 .7-.1 1.5-.2 2.1H92.2c.5 3.2 2.6 5.1 5.9 5.1 2.4 0 4.1-.9 5.1-2.5h4.6c-1.3 4.1-4.8 6.7-9.8 6.7Zm-.3-18c-2.9 0-4.9 1.8-5.4 4.7h10.8c-.4-2.9-2.4-4.7-5.4-4.7Z" fill="#F7F4FF"/>
  <path d="M122.5 36.7c-6.5 0-10.9-4.3-10.9-10.9 0-6.6 4.3-11.2 10.6-11.2 6.2 0 10.3 4.3 10.3 10.7 0 .7-.1 1.5-.2 2.1h-15.6c.5 3.2 2.6 5.1 5.9 5.1 2.4 0 4.1-.9 5.1-2.5h4.6c-1.3 4.1-4.8 6.7-9.8 6.7Zm-.3-18c-2.9 0-4.9 1.8-5.4 4.7h10.8c-.4-2.9-2.4-4.7-5.4-4.7Z" fill="#F7F4FF"/>
  <path d="M137.1 36.2V15.1h4.9v3.1c1.3-2.2 3.6-3.6 6.8-3.6 5 0 8.3 3.5 8.3 8.9v12.7h-5V24.4c0-3.2-1.9-5.2-5-5.2s-5 2-5 5.2v11.8h-5Z" fill="#F7F4FF"/>
  <path d="M169.1 36.7c-2 0-3.5-1.5-3.5-3.4 0-2 1.5-3.5 3.5-3.5s3.5 1.5 3.5 3.5c0 1.9-1.5 3.4-3.5 3.4Z" fill="#9070FF"/>
  <defs>
    <linearGradient id="icon-bg" x1="10.5" y1="5.5" x2="46.8" y2="51.9" gradientUnits="userSpaceOnUse">
      <stop stop-color="#1C1F31"/>
      <stop offset="0.48" stop-color="#17111F"/>
      <stop offset="1" stop-color="#52183F"/>
    </linearGradient>
  </defs>
</svg>
